<svg width="32" height="32" viewBox="0 0 32 32" fill="none" xmlns="http://www.w3.org/2000/svg">
<g clip-path="url(#clip0_70_2)">
<path d="M31.8304 23.3598C31.7916 23.2763 31.7555 23.207 31.7219 23.1515C31.1667 22.1516 30.1058 20.9243 28.5397 19.4692L28.5066 19.4358L28.49 19.4195L28.4733 19.4028H28.4564C27.7457 18.7252 27.2956 18.2696 27.1071 18.0363C26.7622 17.592 26.6849 17.1423 26.8734 16.6866C27.0066 16.3423 27.5068 15.6152 28.3729 14.5042C28.8285 13.9155 29.1893 13.4436 29.4558 13.0881C31.3775 10.5333 32.2107 8.90071 31.9551 8.18975L31.8558 8.02361C31.7891 7.92359 31.617 7.83209 31.3396 7.74864C31.0616 7.66537 30.7062 7.65159 30.273 7.70709L25.4747 7.74024C25.397 7.71269 25.286 7.71526 25.1414 7.74864C24.9969 7.78202 24.9247 7.79877 24.9247 7.79877L24.8412 7.84049L24.7749 7.89062C24.7193 7.92377 24.6582 7.98207 24.5915 8.0654C24.5252 8.14844 24.4697 8.24589 24.4253 8.35694C23.9029 9.70094 23.309 10.9505 22.6424 12.1056C22.2314 12.7944 21.8539 13.3913 21.5092 13.8967C21.165 14.402 20.8762 14.7742 20.6431 15.0129C20.4097 15.2517 20.199 15.4431 20.0098 15.5876C19.8209 15.7322 19.6767 15.7933 19.5769 15.771C19.4768 15.7486 19.3826 15.7264 19.2933 15.7043C19.1379 15.6042 19.0129 15.4682 18.9187 15.2961C18.824 15.1239 18.7603 14.9072 18.727 14.6462C18.6938 14.385 18.6742 14.1603 18.6686 13.9714C18.6634 13.7828 18.6658 13.5159 18.6771 13.1716C18.6886 12.8271 18.6938 12.5941 18.6938 12.4719C18.6938 12.0497 18.7021 11.5916 18.7186 11.0973C18.7354 10.603 18.749 10.2114 18.7604 9.92287C18.7717 9.63407 18.7769 9.32851 18.7769 9.00639C18.7769 8.68426 18.7573 8.43164 18.7186 8.24828C18.6803 8.06516 18.6215 7.88741 18.5441 7.71509C18.4662 7.54294 18.3522 7.40977 18.2025 7.31523C18.0526 7.22081 17.8662 7.14588 17.6444 7.09021C17.0557 6.95698 16.306 6.88491 15.395 6.87371C13.3291 6.85153 12.0017 6.98493 11.413 7.27374C11.1797 7.39576 10.9687 7.56248 10.7799 7.77338C10.58 8.01784 10.5521 8.15124 10.6964 8.17318C11.363 8.27303 11.8348 8.51188 12.1126 8.8895L12.2126 9.0896C12.2905 9.23398 12.3682 9.48958 12.446 9.85605C12.5237 10.2225 12.5738 10.6279 12.5959 11.072C12.6513 11.883 12.6513 12.5772 12.5959 13.1547C12.5402 13.7324 12.4877 14.1822 12.4376 14.5043C12.3875 14.8264 12.3125 15.0874 12.2126 15.2873C12.1126 15.4872 12.046 15.6094 12.0126 15.6538C11.9793 15.6981 11.9515 15.7261 11.9294 15.7371C11.7851 15.7924 11.6349 15.8206 11.4795 15.8206C11.3239 15.8206 11.1351 15.7427 10.913 15.5871C10.691 15.4316 10.4606 15.2179 10.2217 14.9457C9.98285 14.6735 9.71348 14.293 9.41347 13.8044C9.1137 13.3157 8.80266 12.7381 8.48053 12.0717L8.21402 11.5884C8.04742 11.2775 7.81983 10.8248 7.53102 10.2306C7.24204 9.63628 6.98662 9.06136 6.76457 8.50598C6.67581 8.27274 6.54247 8.09516 6.36478 7.97296L6.28139 7.92283C6.22595 7.87848 6.13695 7.83139 6.01487 7.7812C5.89262 7.73108 5.76505 7.69513 5.63165 7.67301L1.06651 7.70616C0.600017 7.70616 0.283494 7.81184 0.116829 8.02291L0.0501278 8.12276C0.0168065 8.17837 0 8.26719 0 8.38945C0 8.51165 0.0333213 8.66162 0.100022 8.8392C0.766448 10.4055 1.49117 11.916 2.27419 13.3711C3.05721 14.8261 3.73765 15.9982 4.31508 16.8863C4.89263 17.775 5.48132 18.6137 6.08117 19.4021C6.68101 20.1908 7.07806 20.6962 7.27233 20.9183C7.46683 21.1407 7.61961 21.307 7.73066 21.4181L8.14726 21.8179C8.41383 22.0845 8.80529 22.4038 9.32179 22.7758C9.83842 23.1481 10.4104 23.5146 11.0379 23.8759C11.6656 24.2366 12.3958 24.5309 13.229 24.7586C14.062 24.9864 14.8728 25.0779 15.6615 25.0338H17.5775C17.9661 25.0002 18.2605 24.878 18.4606 24.6671L18.5269 24.5836C18.5715 24.5173 18.6132 24.4143 18.6518 24.2757C18.6907 24.1369 18.7101 23.9839 18.7101 23.8176C18.6987 23.34 18.7351 22.9097 18.8182 22.5265C18.9012 22.1434 18.9959 21.8546 19.1017 21.6601C19.2075 21.4658 19.3269 21.3018 19.4598 21.1689C19.593 21.0357 19.6879 20.955 19.7435 20.9272C19.7989 20.8992 19.843 20.8803 19.8764 20.8689C20.1429 20.7801 20.4567 20.8661 20.818 21.1273C21.179 21.3884 21.5177 21.7107 21.8344 22.0937C22.151 22.4771 22.5314 22.9073 22.9756 23.3848C23.4201 23.8625 23.8087 24.2176 24.1418 24.4512L24.4749 24.6511C24.6974 24.7845 24.9862 24.9067 25.3417 25.0178C25.6966 25.1288 26.0075 25.1565 26.2745 25.101L30.5395 25.0345C30.9614 25.0345 31.2896 24.9647 31.5225 24.8261C31.7558 24.6872 31.8944 24.5343 31.9391 24.3679C31.9837 24.2014 31.9861 24.0124 31.9475 23.8012C31.908 23.5904 31.8691 23.4431 31.8304 23.3598Z" fill="black"/>
</g>
<defs>
<clipPath id="clip0_70_2">
<rect width="32" height="32" fill="white"/>
</clipPath>
</defs>
</svg>
