<svg width="33" height="33" viewBox="0 0 33 33" fill="none" xmlns="http://www.w3.org/2000/svg">
<path d="M27.1667 30.1236H5.83335C5.12611 30.1236 4.44783 29.8426 3.94774 29.3426C3.44764 28.8425 3.16669 28.1641 3.16669 27.4569V12.8556C3.18885 12.4149 3.31839 11.9862 3.54404 11.607C3.76968 11.2277 4.08458 10.9094 4.46135 10.6796L15.128 4.27959C15.5423 4.03118 16.0163 3.89996 16.4993 3.89996C16.9824 3.89996 17.4564 4.03118 17.8707 4.27959L28.5374 10.6796C29.3386 11.1636 29.8307 12.0303 29.8334 12.9663V27.4569C29.8334 28.1641 29.5524 28.8425 29.0523 29.3426C28.5522 29.8426 27.874 30.1236 27.1667 30.1236ZM5.83335 13.9476V27.4569H27.1667V13.9476L16.5 21.0582L5.83335 13.9476ZM16.5 6.56626L7.58802 11.9129L16.5 17.8543L25.4107 11.9129L16.5 6.56626Z" fill="#F0E3CA"/>
</svg>
