<svg width="33" height="33" viewBox="0 0 33 33" fill="none" xmlns="http://www.w3.org/2000/svg">
<g clip-path="url(#clip0_48_19)">
<path d="M16.5 1.1863C7.661 1.1863 0.5 8.3533 0.5 17.1863C0.5 24.2593 5.084 30.2543 11.437 32.3693C12.24 32.5203 12.53 32.0253 12.53 31.5973C12.53 31.2173 12.521 30.2123 12.515 28.8783C8.062 29.8423 7.124 26.7273 7.124 26.7273C6.395 24.8833 5.343 24.3883 5.343 24.3883C3.895 23.3993 5.458 23.4203 5.458 23.4203C7.062 23.5293 7.906 25.0653 7.906 25.0653C9.33299 27.5133 11.65 26.8053 12.567 26.3933C12.707 25.3623 13.124 24.6533 13.578 24.2583C10.026 23.8573 6.291 22.4823 6.291 16.3513C6.291 14.6003 6.911 13.1743 7.936 12.0543C7.759 11.6533 7.217 10.0233 8.077 7.8193C8.077 7.8193 9.41604 7.3923 12.477 9.46033C13.7809 9.10566 15.1258 8.92379 16.477 8.9193C17.837 8.92829 19.196 9.10627 20.477 9.46033C23.52 7.3923 24.858 7.8193 24.858 7.8193C25.717 10.0233 25.175 11.6523 25.019 12.0543C26.034 13.1743 26.654 14.6013 26.654 16.3513C26.654 22.4963 22.914 23.8513 19.358 24.2423C19.914 24.7213 20.435 25.7063 20.435 27.2013C20.435 29.3413 20.415 31.0653 20.415 31.5863C20.415 32.0023 20.695 32.5023 21.519 32.3413C27.919 30.2483 32.498 24.2483 32.498 17.1853C32.498 8.3523 25.337 1.1853 16.498 1.1853L16.5 1.1863Z" fill="#F0E3CA"/>
</g>
<defs>
<clipPath id="clip0_48_19">
<rect width="32" height="32" fill="white" transform="translate(0.5 0.790283)"/>
</clipPath>
</defs>
</svg>
