<svg width="128" height="128" viewBox="0 0 128 128" fill="none" xmlns="http://www.w3.org/2000/svg">
<path fill-rule="evenodd" clip-rule="evenodd" d="M128 64C128 99.3462 99.3462 128 64 128C28.6538 128 0 99.3462 0 64C0 28.6538 28.6538 0 64 0C99.3462 0 128 28.6538 128 64ZM54.3713 51.548C54.3713 51.548 54.0391 51.0504 53.7068 51.0504C53.3746 51.0504 53.1301 51.1583 53.0453 51.548C53.041 52.2082 53.1848 52.8726 53.5429 53.54C54.4346 55.2169 55.8641 56.5731 57.6935 57.6906C60.5153 59.497 64.1424 60.0521 68.1521 60.0147C71.0127 59.9975 74.2962 59.5991 77.7809 59.0181C82.4953 57.9063 86.7409 56.018 90.7305 53.7054C95.0739 50.9037 98.7168 47.1457 101.521 42.2501C101.696 41.9101 101.871 41.597 102.047 41.2839C102.998 39.5903 103.948 37.8972 104.675 31.9569C104.675 29.847 104.294 27.6854 103.348 25.4821C102.363 22.6416 99.9652 20.5562 96.873 18.8419C96.873 18.8419 90.7305 15.5211 82.4292 15.5211C74.1279 15.5211 67.6531 17.6798 67.6531 17.6798C62.2009 19.2316 56.53 21.6636 50.7197 24.6522C46.7877 26.6024 42.9894 29.0589 39.2644 31.7915C33.1866 35.9766 28.8461 41.3972 25.3196 47.3974C24.1158 49.8438 23.4068 52.3808 23.3277 55.0343C23.5909 58.7204 25.1355 62.1519 27.976 65.3275C31.1026 68.9431 34.6521 72.0338 38.6014 74.624L45.906 79.7699C46.8089 80.3864 47.6782 81.031 48.4614 81.7475C47.3677 82.3084 46.15 82.9693 44.7425 83.7551C39.9332 85.9944 35.4474 89.5885 31.1285 93.883C29.8068 95.547 28.754 97.3591 28.1399 99.5279C26.7161 104.557 27.6797 108.456 31.1285 111.149C32.3193 111.773 34.1876 112.145 36.6066 112.311C43.2037 112.276 48.0705 109.61 51.8803 105.338C55.1134 101.845 57.1657 97.198 57.5253 90.8944C57.6709 88.2606 57.1523 85.7504 55.9832 83.3616C57.924 82.7621 59.9697 82.4078 62.175 82.4263C70.1282 83.1209 77.4947 84.5232 78.7761 93.2171C78.5719 95.4161 77.5192 97.3864 75.4553 98.862C75.4553 98.862 73.7957 99.6919 74.2933 100.189C74.7909 100.687 75.7876 100.189 75.7876 100.189C78.7833 99.0547 80.722 96.8974 81.4325 93.5493C82.061 89.9452 80.4459 86.4762 77.4487 83.0907C75.0555 80.7177 72.0641 78.5417 64.6659 78.1102C62.3001 78.1217 60.127 78.2051 58.3566 78.4424C56.5156 78.7334 55.016 79.0607 53.4936 79.5627C52.1689 77.9675 50.5231 76.4323 48.561 74.9562L41.0895 69.1459C35.7739 64.9305 32.8687 60.4735 33.1204 55.6987C33.1607 48.4746 38.6877 40.4725 57.1931 30.6294C65.7547 25.9711 74.3882 23.5606 83.0922 23.3248C90.7161 23.5606 96.9334 25.1714 97.7015 32.1237C97.4138 37.9944 93.942 42.8153 88.7371 47.0652C82.0135 52.2571 74.2775 55.3823 65.1621 55.6987C60.452 55.5836 56.7098 54.3655 54.3713 51.548ZM51.14 85.388C49.2473 86.3637 47.4183 87.488 45.5893 88.6123C45.252 88.8196 44.9148 89.0269 44.5771 89.2333C40.7486 91.9083 38.0204 94.9645 36.2758 98.3644C35.597 99.6387 35.2533 101.039 35.1138 102.515C35.1051 105.041 36.3003 105.8 38.1023 105.669C41.649 105.886 45.0014 103.719 48.2302 100.024C50.3587 97.1894 51.7782 94.021 51.8832 90.2285C52.0001 88.3098 51.7116 86.7304 51.14 85.388Z" fill="#F0E3CA"/>
</svg>
