<svg width="33" height="41" viewBox="0 0 33 41" fill="none" xmlns="http://www.w3.org/2000/svg">
<g clip-path="url(#clip0_49_33)" filter="url(#filter0_d_49_33)">
<path fill-rule="evenodd" clip-rule="evenodd" d="M11.72 0.790283C8.45734 0.790283 5.83334 3.52762 5.83334 6.88095C5.83334 8.91962 6.804 10.7303 8.296 11.8356C7.52704 12.4117 6.90375 13.16 6.47609 14.0204C6.04843 14.8808 5.8283 15.8295 5.83334 16.7903C5.83334 18.8303 6.804 20.6396 8.296 21.7449C7.52704 22.3211 6.90375 23.0693 6.47609 23.9297C6.04843 24.7902 5.8283 25.7388 5.83334 26.6996C5.83334 30.0529 8.45734 32.7903 11.72 32.7903C14.9813 32.7903 17.6067 30.0529 17.6067 26.6996V21.5503C18.6378 22.41 19.9375 22.8813 21.28 22.8823C24.5427 22.881 27.1667 20.1436 27.1667 16.7903C27.172 15.8294 26.952 14.8807 26.5243 14.0202C26.0967 13.1597 25.4732 12.4115 24.704 11.8356C25.473 11.2595 26.0963 10.5112 26.5239 9.65083C26.9516 8.79042 27.1717 7.84177 27.1667 6.88095C27.1667 3.52762 24.5427 0.790283 21.28 0.790283H11.72ZM8.04534 6.88095C8.04534 4.75962 9.70134 3.06095 11.72 3.06095H15.3933V10.701H11.72C9.70134 10.701 8.04534 9.00095 8.04534 6.88095ZM21.28 10.6996H17.6067V3.05962H21.28C23.3 3.05962 24.9547 4.75962 24.9547 6.88095C24.9547 9.00095 23.3 10.6996 21.28 10.6996ZM8.04667 16.7903C8.04667 14.6703 9.70267 12.9703 11.7213 12.9703H15.3947V20.6103H11.72C9.7 20.6103 8.04534 18.9103 8.04534 16.7903H8.04667ZM17.6067 16.7903C17.6067 14.6703 19.2627 12.9703 21.2813 12.9703C23.3013 12.9703 24.956 14.669 24.956 16.7903C24.956 18.9103 23.3013 20.6103 21.2813 20.6103C19.2627 20.6103 17.608 18.9116 17.608 16.7903H17.6067ZM8.04667 26.6996C8.04667 24.5796 9.70267 22.881 11.7213 22.881H15.3947V26.6996C15.3947 28.8209 13.7413 30.5196 11.7213 30.5196C9.70267 30.5196 8.04667 28.8209 8.04667 26.6996Z" fill="#F0E3CA"/>
</g>
<defs>
<filter id="filter0_d_49_33" x="-3.5" y="0.790283" width="40" height="40" filterUnits="userSpaceOnUse" color-interpolation-filters="sRGB">
<feFlood flood-opacity="0" result="BackgroundImageFix"/>
<feColorMatrix in="SourceAlpha" type="matrix" values="0 0 0 0 0 0 0 0 0 0 0 0 0 0 0 0 0 0 127 0" result="hardAlpha"/>
<feOffset dy="4"/>
<feGaussianBlur stdDeviation="2"/>
<feComposite in2="hardAlpha" operator="out"/>
<feColorMatrix type="matrix" values="0 0 0 0 0 0 0 0 0 0 0 0 0 0 0 0 0 0 0.25 0"/>
<feBlend mode="normal" in2="BackgroundImageFix" result="effect1_dropShadow_49_33"/>
<feBlend mode="normal" in="SourceGraphic" in2="effect1_dropShadow_49_33" result="shape"/>
</filter>
<clipPath id="clip0_49_33">
<rect width="32" height="32" fill="white" transform="translate(0.5 0.790283)"/>
</clipPath>
</defs>
</svg>
